<svg width="491" height="389" viewBox="0 0 491 389" fill="none" xmlns="http://www.w3.org/2000/svg">
<g filter="url(#filter0_d_484_141)">
<rect x="43.5467" y="61.888" width="439.173" height="314.492" rx="20" fill="#FFFDFD"/>
</g>
<g filter="url(#filter1_d_484_141)">
<rect x="8" y="6.31509" width="439.173" height="314.492" rx="20" fill="#FFFDFD"/>
</g>
<rect x="41.2533" width="204.107" height="8.84115" rx="3" fill="#D9D9D9"/>
<rect x="8" y="209.661" width="10.32" height="98.5156" rx="3" fill="#D9D9D9"/>
<line y1="-0.5" x2="156.618" y2="-0.5" transform="matrix(-0.00371299 -0.999993 0.99999 -0.00450474 46.4215 256.396)" stroke="#DDD9D9"/>
<line y1="-0.5" x2="380.702" y2="-0.5" transform="matrix(0.999978 0.00663523 -0.00546905 0.999985 45.84 256.393)" stroke="#DFDADA"/>
<line x1="34.3733" y1="248.315" x2="45.84" y2="248.315" stroke="#D7D7D7"/>
<line x1="34.3733" y1="218.003" x2="45.84" y2="218.003" stroke="#D7D7D7"/>
<line x1="34.3733" y1="187.69" x2="45.84" y2="187.69" stroke="#D7D7D7"/>
<line x1="34.3733" y1="157.378" x2="45.84" y2="157.378" stroke="#D7D7D7"/>
<line x1="34.3733" y1="127.065" x2="45.84" y2="127.065" stroke="#D7D7D7"/>
<line x1="119.727" y1="256.393" x2="119.727" y2="262.708" stroke="#CBC7C7"/>
<line x1="206.873" y1="256.393" x2="206.873" y2="262.708" stroke="#CBC7C7"/>
<line x1="284.847" y1="256.393" x2="284.847" y2="262.708" stroke="#CBC7C7"/>
<line x1="362.82" y1="256.393" x2="362.82" y2="262.708" stroke="#CBC7C7"/>
<path d="M36.8439 242.328V245.237H36.4916V242.697H36.4745L35.7643 243.169V242.811L36.4916 242.328H36.8439ZM38.6294 245.277C38.4154 245.277 38.2331 245.219 38.0825 245.102C37.9319 244.985 37.8169 244.815 37.7373 244.592C37.6578 244.369 37.618 244.099 37.618 243.782C37.618 243.468 37.6578 243.2 37.7373 242.977C37.8178 242.754 37.9334 242.583 38.0839 242.466C38.2354 242.347 38.4173 242.288 38.6294 242.288C38.8415 242.288 39.0228 242.347 39.1734 242.466C39.3249 242.583 39.4405 242.754 39.52 242.977C39.6005 243.2 39.6407 243.468 39.6407 243.782C39.6407 244.099 39.601 244.369 39.5214 244.592C39.4419 244.815 39.3268 244.985 39.1763 245.102C39.0257 245.219 38.8434 245.277 38.6294 245.277ZM38.6294 244.964C38.8415 244.964 39.0063 244.862 39.1237 244.657C39.2411 244.453 39.2998 244.161 39.2998 243.782C39.2998 243.531 39.2728 243.316 39.2189 243.139C39.1658 242.962 39.0891 242.827 38.9888 242.734C38.8893 242.641 38.7695 242.595 38.6294 242.595C38.4192 242.595 38.2549 242.699 38.1365 242.906C38.0181 243.112 37.9589 243.405 37.9589 243.782C37.9589 244.034 37.9854 244.248 38.0385 244.424C38.0915 244.601 38.1677 244.735 38.2672 244.826C38.3675 244.918 38.4883 244.964 38.6294 244.964ZM41.1294 245.277C40.9154 245.277 40.7331 245.219 40.5825 245.102C40.4319 244.985 40.3169 244.815 40.2373 244.592C40.1578 244.369 40.118 244.099 40.118 243.782C40.118 243.468 40.1578 243.2 40.2373 242.977C40.3178 242.754 40.4334 242.583 40.5839 242.466C40.7354 242.347 40.9173 242.288 41.1294 242.288C41.3415 242.288 41.5228 242.347 41.6734 242.466C41.8249 242.583 41.9405 242.754 42.02 242.977C42.1005 243.2 42.1407 243.468 42.1407 243.782C42.1407 244.099 42.101 244.369 42.0214 244.592C41.9419 244.815 41.8268 244.985 41.6763 245.102C41.5257 245.219 41.3434 245.277 41.1294 245.277ZM41.1294 244.964C41.3415 244.964 41.5063 244.862 41.6237 244.657C41.7411 244.453 41.7998 244.161 41.7998 243.782C41.7998 243.531 41.7728 243.316 41.7189 243.139C41.6658 242.962 41.5891 242.827 41.4888 242.734C41.3893 242.641 41.2695 242.595 41.1294 242.595C40.9192 242.595 40.7549 242.699 40.6365 242.906C40.5181 243.112 40.4589 243.405 40.4589 243.782C40.4589 244.034 40.4854 244.248 40.5385 244.424C40.5915 244.601 40.6677 244.735 40.7672 244.826C40.8675 244.918 40.9883 244.964 41.1294 244.964Z" fill="#CFCECE"/>
<path d="M36.9678 216.188V215.932L37.928 214.881C38.0407 214.758 38.1335 214.651 38.2064 214.56C38.2794 214.468 38.3333 214.382 38.3684 214.301C38.4044 214.22 38.4224 214.134 38.4224 214.045C38.4224 213.943 38.3977 213.855 38.3485 213.78C38.3002 213.705 38.2339 213.647 38.1496 213.607C38.0653 213.566 37.9706 213.545 37.8655 213.545C37.7538 213.545 37.6563 213.569 37.5729 213.615C37.4905 213.661 37.4266 213.724 37.3812 213.807C37.3367 213.889 37.3144 213.986 37.3144 214.097H36.9792C36.9792 213.926 37.0185 213.777 37.0971 213.648C37.1757 213.519 37.2827 213.419 37.4181 213.347C37.5545 213.275 37.7074 213.239 37.8769 213.239C38.0474 213.239 38.1984 213.275 38.33 213.347C38.4617 213.419 38.5649 213.516 38.6397 213.638C38.7145 213.76 38.7519 213.896 38.7519 214.045C38.7519 214.152 38.7325 214.257 38.6937 214.359C38.6558 214.461 38.5895 214.574 38.4948 214.699C38.401 214.823 38.2708 214.974 38.1042 215.153L37.4508 215.852V215.875H38.803V216.188H36.9678ZM40.3385 216.227C40.1245 216.227 39.9422 216.169 39.7917 216.053C39.6411 215.935 39.526 215.765 39.4465 215.543C39.367 215.319 39.3272 215.049 39.3272 214.733C39.3272 214.419 39.367 214.15 39.4465 213.928C39.527 213.704 39.6425 213.534 39.7931 213.416C39.9446 213.298 40.1264 213.239 40.3385 213.239C40.5507 213.239 40.732 213.298 40.8826 213.416C41.0341 213.534 41.1496 213.704 41.2292 213.928C41.3097 214.15 41.3499 214.419 41.3499 214.733C41.3499 215.049 41.3101 215.319 41.2306 215.543C41.151 215.765 41.036 215.935 40.8854 216.053C40.7349 216.169 40.5526 216.227 40.3385 216.227ZM40.3385 215.915C40.5507 215.915 40.7154 215.812 40.8329 215.608C40.9503 215.403 41.009 215.112 41.009 214.733C41.009 214.481 40.982 214.267 40.928 214.089C40.875 213.912 40.7983 213.777 40.6979 213.685C40.5985 213.592 40.4787 213.545 40.3385 213.545C40.1283 213.545 39.964 213.649 39.8456 213.857C39.7273 214.063 39.6681 214.355 39.6681 214.733C39.6681 214.985 39.6946 215.199 39.7476 215.375C39.8007 215.551 39.8769 215.685 39.9763 215.777C40.0767 215.869 40.1974 215.915 40.3385 215.915ZM42.8385 216.227C42.6245 216.227 42.4422 216.169 42.2917 216.053C42.1411 215.935 42.026 215.765 41.9465 215.543C41.867 215.319 41.8272 215.049 41.8272 214.733C41.8272 214.419 41.867 214.15 41.9465 213.928C42.027 213.704 42.1425 213.534 42.2931 213.416C42.4446 213.298 42.6264 213.239 42.8385 213.239C43.0507 213.239 43.232 213.298 43.3826 213.416C43.5341 213.534 43.6496 213.704 43.7292 213.928C43.8097 214.15 43.8499 214.419 43.8499 214.733C43.8499 215.049 43.8101 215.319 43.7306 215.543C43.651 215.765 43.536 215.935 43.3854 216.053C43.2349 216.169 43.0526 216.227 42.8385 216.227ZM42.8385 215.915C43.0507 215.915 43.2154 215.812 43.3329 215.608C43.4503 215.403 43.509 215.112 43.509 214.733C43.509 214.481 43.482 214.267 43.428 214.089C43.375 213.912 43.2983 213.777 43.1979 213.685C43.0985 213.592 42.9787 213.545 42.8385 213.545C42.6283 213.545 42.464 213.649 42.3456 213.857C42.2273 214.063 42.1681 214.355 42.1681 214.733C42.1681 214.985 42.1946 215.199 42.2476 215.375C42.3007 215.551 42.3769 215.685 42.4763 215.777C42.5767 215.869 42.6974 215.915 42.8385 215.915Z" fill="#CFCECE"/>
<path d="M37.9508 185.915C37.7633 185.915 37.5961 185.883 37.4493 185.818C37.3035 185.754 37.1875 185.664 37.1013 185.55C37.0161 185.434 36.9697 185.3 36.9621 185.148H37.3201C37.3277 185.241 37.3599 185.322 37.4167 185.391C37.4735 185.458 37.5478 185.51 37.6397 185.547C37.7315 185.584 37.8333 185.602 37.9451 185.602C38.0701 185.602 38.1809 185.58 38.2775 185.537C38.3741 185.493 38.4498 185.433 38.5047 185.355C38.5597 185.277 38.5871 185.188 38.5871 185.085C38.5871 184.978 38.5606 184.884 38.5076 184.803C38.4546 184.72 38.3769 184.656 38.2746 184.609C38.1724 184.563 38.0474 184.54 37.8996 184.54H37.6667V184.227H37.8996C38.0152 184.227 38.1165 184.206 38.2036 184.165C38.2917 184.123 38.3603 184.064 38.4096 183.989C38.4598 183.913 38.4849 183.824 38.4849 183.722C38.4849 183.623 38.4631 183.537 38.4195 183.464C38.376 183.392 38.3144 183.335 38.2349 183.294C38.1563 183.253 38.0635 183.233 37.9564 183.233C37.8561 183.233 37.7614 183.251 37.6724 183.288C37.5843 183.324 37.5123 183.377 37.4564 183.446C37.4006 183.514 37.3703 183.597 37.3655 183.693H37.0246C37.0303 183.541 37.0762 183.407 37.1624 183.293C37.2486 183.177 37.3613 183.087 37.5005 183.023C37.6406 182.958 37.7945 182.926 37.9621 182.926C38.1421 182.926 38.2964 182.963 38.4252 183.036C38.554 183.107 38.6529 183.203 38.7221 183.321C38.7912 183.439 38.8258 183.567 38.8258 183.705C38.8258 183.868 38.7827 184.008 38.6965 184.124C38.6113 184.239 38.4953 184.319 38.3485 184.364V184.386C38.5322 184.417 38.6757 184.495 38.7789 184.621C38.8821 184.746 38.9337 184.901 38.9337 185.085C38.9337 185.243 38.8906 185.385 38.8045 185.511C38.7192 185.636 38.6028 185.735 38.455 185.807C38.3073 185.879 38.1392 185.915 37.9508 185.915ZM40.4635 185.915C40.2495 185.915 40.0672 185.857 39.9167 185.74C39.7661 185.623 39.651 185.453 39.5715 185.23C39.492 185.007 39.4522 184.737 39.4522 184.42C39.4522 184.106 39.492 183.838 39.5715 183.615C39.652 183.392 39.7675 183.221 39.9181 183.104C40.0696 182.985 40.2514 182.926 40.4635 182.926C40.6757 182.926 40.857 182.985 41.0076 183.104C41.1591 183.221 41.2746 183.392 41.3542 183.615C41.4347 183.838 41.4749 184.106 41.4749 184.42C41.4749 184.737 41.4351 185.007 41.3556 185.23C41.276 185.453 41.161 185.623 41.0104 185.74C40.8599 185.857 40.6776 185.915 40.4635 185.915ZM40.4635 185.602C40.6757 185.602 40.8404 185.5 40.9579 185.295C41.0753 185.091 41.134 184.799 41.134 184.42C41.134 184.169 41.107 183.954 41.053 183.777C41 183.6 40.9233 183.465 40.8229 183.372C40.7235 183.279 40.6037 183.233 40.4635 183.233C40.2533 183.233 40.089 183.337 39.9706 183.544C39.8523 183.75 39.7931 184.043 39.7931 184.42C39.7931 184.672 39.8196 184.886 39.8726 185.062C39.9257 185.239 40.0019 185.373 40.1013 185.464C40.2017 185.556 40.3224 185.602 40.4635 185.602ZM42.9635 185.915C42.7495 185.915 42.5672 185.857 42.4167 185.74C42.2661 185.623 42.151 185.453 42.0715 185.23C41.992 185.007 41.9522 184.737 41.9522 184.42C41.9522 184.106 41.992 183.838 42.0715 183.615C42.152 183.392 42.2675 183.221 42.4181 183.104C42.5696 182.985 42.7514 182.926 42.9635 182.926C43.1757 182.926 43.357 182.985 43.5076 183.104C43.6591 183.221 43.7746 183.392 43.8542 183.615C43.9347 183.838 43.9749 184.106 43.9749 184.42C43.9749 184.737 43.9351 185.007 43.8556 185.23C43.776 185.453 43.661 185.623 43.5104 185.74C43.3599 185.857 43.1776 185.915 42.9635 185.915ZM42.9635 185.602C43.1757 185.602 43.3404 185.5 43.4579 185.295C43.5753 185.091 43.634 184.799 43.634 184.42C43.634 184.169 43.607 183.954 43.553 183.777C43.5 183.6 43.4233 183.465 43.3229 183.372C43.2235 183.279 43.1037 183.233 42.9635 183.233C42.7533 183.233 42.589 183.337 42.4706 183.544C42.3523 183.75 42.2931 184.043 42.2931 184.42C42.2931 184.672 42.3196 184.886 42.3726 185.062C42.4257 185.239 42.5019 185.373 42.6013 185.464C42.7017 185.556 42.8224 185.602 42.9635 185.602Z" fill="#CFCECE"/>
<path d="M35.753 153.703V153.413L37.0314 151.39H37.2416V151.839H37.0995L36.1336 153.368V153.39H37.8552V153.703H35.753ZM37.1223 154.299V153.615V153.48V151.39H37.4575V154.299H37.1223ZM39.3364 154.339C39.1224 154.339 38.9401 154.281 38.7895 154.165C38.639 154.047 38.5239 153.877 38.4444 153.655C38.3648 153.431 38.325 153.161 38.325 152.845C38.325 152.531 38.3648 152.262 38.4444 152.04C38.5249 151.816 38.6404 151.646 38.791 151.528C38.9425 151.41 39.1243 151.351 39.3364 151.351C39.5485 151.351 39.7299 151.41 39.8804 151.528C40.032 151.646 40.1475 151.816 40.227 152.04C40.3075 152.262 40.3478 152.531 40.3478 152.845C40.3478 153.161 40.308 153.431 40.2285 153.655C40.1489 153.877 40.0339 154.047 39.8833 154.165C39.7327 154.281 39.5504 154.339 39.3364 154.339ZM39.3364 154.027C39.5485 154.027 39.7133 153.924 39.8307 153.72C39.9482 153.515 40.0069 153.224 40.0069 152.845C40.0069 152.593 39.9799 152.379 39.9259 152.201C39.8729 152.024 39.7962 151.889 39.6958 151.797C39.5964 151.704 39.4766 151.657 39.3364 151.657C39.1262 151.657 38.9619 151.761 38.8435 151.969C38.7251 152.175 38.666 152.467 38.666 152.845C38.666 153.097 38.6925 153.311 38.7455 153.487C38.7985 153.663 38.8748 153.797 38.9742 153.889C39.0746 153.981 39.1953 154.027 39.3364 154.027ZM41.8364 154.339C41.6224 154.339 41.4401 154.281 41.2895 154.165C41.139 154.047 41.0239 153.877 40.9444 153.655C40.8648 153.431 40.825 153.161 40.825 152.845C40.825 152.531 40.8648 152.262 40.9444 152.04C41.0249 151.816 41.1404 151.646 41.291 151.528C41.4425 151.41 41.6243 151.351 41.8364 151.351C42.0485 151.351 42.2299 151.41 42.3804 151.528C42.532 151.646 42.6475 151.816 42.727 152.04C42.8075 152.262 42.8478 152.531 42.8478 152.845C42.8478 153.161 42.808 153.431 42.7285 153.655C42.6489 153.877 42.5339 154.047 42.3833 154.165C42.2327 154.281 42.0504 154.339 41.8364 154.339ZM41.8364 154.027C42.0485 154.027 42.2133 153.924 42.3307 153.72C42.4482 153.515 42.5069 153.224 42.5069 152.845C42.5069 152.593 42.4799 152.379 42.4259 152.201C42.3729 152.024 42.2962 151.889 42.1958 151.797C42.0964 151.704 41.9766 151.657 41.8364 151.657C41.6262 151.657 41.4619 151.761 41.3435 151.969C41.2251 152.175 41.166 152.467 41.166 152.845C41.166 153.097 41.1925 153.311 41.2455 153.487C41.2985 153.663 41.3748 153.797 41.4742 153.889C41.5746 153.981 41.6953 154.027 41.8364 154.027Z" fill="#CFCECE"/>
<path d="M35.5836 124.027C35.4169 124.027 35.2668 123.994 35.1333 123.927C34.9998 123.861 34.8927 123.77 34.8123 123.655C34.7318 123.539 34.6877 123.407 34.6802 123.26H35.0211C35.0343 123.391 35.094 123.5 35.2 123.586C35.307 123.672 35.4349 123.714 35.5836 123.714C35.7029 123.714 35.8089 123.686 35.9017 123.63C35.9955 123.575 36.0689 123.498 36.1219 123.4C36.1759 123.302 36.2029 123.191 36.2029 123.067C36.2029 122.94 36.1749 122.826 36.1191 122.727C36.0642 122.627 35.9884 122.548 35.8918 122.49C35.7952 122.432 35.6849 122.403 35.5608 122.402C35.4718 122.401 35.3804 122.415 35.2867 122.443C35.1929 122.47 35.1158 122.506 35.0552 122.549L34.7256 122.51L34.9017 121.078H36.4131V121.39H35.1972L35.0949 122.248H35.112C35.1716 122.201 35.2464 122.162 35.3364 122.13C35.4264 122.099 35.5201 122.084 35.6177 122.084C35.7957 122.084 35.9543 122.126 36.0935 122.211C36.2337 122.296 36.3435 122.411 36.4231 122.558C36.5035 122.705 36.5438 122.872 36.5438 123.061C36.5438 123.246 36.5021 123.412 36.4188 123.558C36.3364 123.703 36.2228 123.817 36.0779 123.902C35.933 123.985 35.7682 124.027 35.5836 124.027ZM38.0569 124.027C37.8429 124.027 37.6606 123.969 37.5101 123.852C37.3595 123.735 37.2444 123.565 37.1649 123.342C37.0853 123.119 37.0456 122.849 37.0456 122.532C37.0456 122.218 37.0853 121.95 37.1649 121.727C37.2454 121.504 37.3609 121.333 37.5115 121.216C37.663 121.097 37.8448 121.038 38.0569 121.038C38.2691 121.038 38.4504 121.097 38.601 121.216C38.7525 121.333 38.868 121.504 38.9476 121.727C39.028 121.95 39.0683 122.218 39.0683 122.532C39.0683 122.849 39.0285 123.119 38.949 123.342C38.8694 123.565 38.7544 123.735 38.6038 123.852C38.4532 123.969 38.2709 124.027 38.0569 124.027ZM38.0569 123.714C38.2691 123.714 38.4338 123.612 38.5512 123.407C38.6687 123.203 38.7274 122.911 38.7274 122.532C38.7274 122.281 38.7004 122.066 38.6464 121.889C38.5934 121.712 38.5167 121.577 38.4163 121.484C38.3169 121.391 38.1971 121.345 38.0569 121.345C37.8467 121.345 37.6824 121.449 37.564 121.656C37.4457 121.862 37.3865 122.155 37.3865 122.532C37.3865 122.784 37.413 122.998 37.466 123.174C37.5191 123.351 37.5953 123.485 37.6947 123.576C37.7951 123.668 37.9158 123.714 38.0569 123.714ZM40.5569 124.027C40.3429 124.027 40.1606 123.969 40.0101 123.852C39.8595 123.735 39.7444 123.565 39.6649 123.342C39.5853 123.119 39.5456 122.849 39.5456 122.532C39.5456 122.218 39.5853 121.95 39.6649 121.727C39.7454 121.504 39.8609 121.333 40.0115 121.216C40.163 121.097 40.3448 121.038 40.5569 121.038C40.7691 121.038 40.9504 121.097 41.101 121.216C41.2525 121.333 41.368 121.504 41.4476 121.727C41.528 121.95 41.5683 122.218 41.5683 122.532C41.5683 122.849 41.5285 123.119 41.449 123.342C41.3694 123.565 41.2544 123.735 41.1038 123.852C40.9532 123.969 40.7709 124.027 40.5569 124.027ZM40.5569 123.714C40.7691 123.714 40.9338 123.612 41.0512 123.407C41.1687 123.203 41.2274 122.911 41.2274 122.532C41.2274 122.281 41.2004 122.066 41.1464 121.889C41.0934 121.712 41.0167 121.577 40.9163 121.484C40.8169 121.391 40.6971 121.345 40.5569 121.345C40.3467 121.345 40.1824 121.449 40.064 121.656C39.9457 121.862 39.8865 122.155 39.8865 122.532C39.8865 122.784 39.913 122.998 39.966 123.174C40.0191 123.351 40.0953 123.485 40.1947 123.576C40.2951 123.668 40.4158 123.714 40.5569 123.714Z" fill="#CFCECE"/>
<path d="M116.139 266.708V263.799H116.491V265.095H118.042V263.799H118.395V266.708H118.042V265.407H116.491V266.708H116.139ZM121.554 265.254C121.554 265.561 121.499 265.826 121.388 266.049C121.277 266.273 121.125 266.445 120.932 266.566C120.739 266.688 120.518 266.748 120.27 266.748C120.022 266.748 119.802 266.688 119.608 266.566C119.415 266.445 119.263 266.273 119.152 266.049C119.042 265.826 118.986 265.561 118.986 265.254C118.986 264.947 119.042 264.682 119.152 264.458C119.263 264.235 119.415 264.063 119.608 263.941C119.802 263.82 120.022 263.759 120.27 263.759C120.518 263.759 120.739 263.82 120.932 263.941C121.125 264.063 121.277 264.235 121.388 264.458C121.499 264.682 121.554 264.947 121.554 265.254ZM121.214 265.254C121.214 265.002 121.171 264.789 121.087 264.616C121.004 264.443 120.891 264.312 120.748 264.223C120.606 264.134 120.446 264.089 120.27 264.089C120.094 264.089 119.935 264.134 119.792 264.223C119.65 264.312 119.536 264.443 119.452 264.616C119.369 264.789 119.327 265.002 119.327 265.254C119.327 265.506 119.369 265.718 119.452 265.892C119.536 266.065 119.65 266.196 119.792 266.285C119.935 266.374 120.094 266.419 120.27 266.419C120.446 266.419 120.606 266.374 120.748 266.285C120.891 266.196 121.004 266.065 121.087 265.892C121.171 265.718 121.214 265.506 121.214 265.254ZM124.124 266.708H123.772V264.112H123.152C122.995 264.112 122.869 264.136 122.773 264.184C122.678 264.232 122.608 264.299 122.564 264.386C122.521 264.473 122.499 264.575 122.499 264.691C122.499 264.808 122.52 264.908 122.563 264.992C122.607 265.076 122.676 265.14 122.77 265.186C122.866 265.231 122.991 265.254 123.147 265.254H123.931V265.572H123.135C122.91 265.572 122.725 265.535 122.58 265.46C122.435 265.384 122.328 265.28 122.258 265.147C122.187 265.015 122.152 264.863 122.152 264.691C122.152 264.52 122.187 264.367 122.258 264.232C122.328 264.098 122.436 263.992 122.581 263.916C122.727 263.838 122.914 263.799 123.141 263.799H124.124V266.708ZM122.755 265.402H123.152L122.448 266.708H122.039L122.755 265.402ZM124.83 266.708V263.799H126.586V264.112H125.183V265.021H125.921C126.13 265.021 126.305 265.055 126.448 265.123C126.592 265.191 126.701 265.287 126.775 265.411C126.85 265.536 126.887 265.682 126.887 265.85C126.887 266.019 126.85 266.168 126.775 266.296C126.701 266.425 126.592 266.526 126.448 266.599C126.305 266.672 126.13 266.708 125.921 266.708H124.83ZM125.183 266.402H125.921C126.054 266.402 126.166 266.375 126.258 266.322C126.351 266.268 126.421 266.199 126.468 266.115C126.516 266.029 126.541 265.939 126.541 265.845C126.541 265.706 126.487 265.586 126.38 265.485C126.273 265.384 126.12 265.333 125.921 265.333H125.183V266.402ZM127.467 266.708V263.799H128.45C128.678 263.799 128.865 263.84 129.01 263.923C129.156 264.004 129.263 264.115 129.334 264.254C129.404 264.393 129.439 264.548 129.439 264.72C129.439 264.891 129.404 265.047 129.334 265.187C129.264 265.327 129.157 265.439 129.013 265.522C128.868 265.605 128.682 265.646 128.456 265.646H127.751V265.333H128.444C128.601 265.333 128.726 265.306 128.821 265.252C128.915 265.198 128.984 265.125 129.027 265.034C129.07 264.941 129.092 264.836 129.092 264.72C129.092 264.603 129.07 264.499 129.027 264.407C128.984 264.315 128.915 264.243 128.819 264.191C128.724 264.138 128.597 264.112 128.439 264.112H127.819V266.708H127.467ZM130.267 265.021H131.097C131.305 265.021 131.481 265.055 131.624 265.123C131.768 265.191 131.877 265.287 131.951 265.411C132.026 265.536 132.063 265.682 132.063 265.85C132.063 266.019 132.026 266.168 131.951 266.296C131.877 266.425 131.768 266.526 131.624 266.599C131.481 266.672 131.305 266.708 131.097 266.708H130.006V263.799H130.358V266.402H131.097C131.23 266.402 131.342 266.375 131.434 266.322C131.526 266.268 131.597 266.199 131.644 266.115C131.692 266.029 131.716 265.939 131.716 265.845C131.716 265.706 131.663 265.586 131.556 265.485C131.449 265.384 131.296 265.333 131.097 265.333H130.267V265.021Z" fill="#D8D5D5"/>
<path d="M203.036 267.413V266.396H203.223C203.288 266.337 203.348 266.254 203.405 266.147C203.463 266.039 203.511 265.895 203.551 265.715C203.592 265.535 203.619 265.305 203.632 265.027L203.695 263.799H205.422V266.396H205.757V267.407H205.422V266.708H203.371V267.413H203.036ZM203.644 266.396H205.087V264.112H204.013L203.967 265.027C203.956 265.239 203.936 265.431 203.908 265.603C203.879 265.775 203.843 265.927 203.798 266.059C203.754 266.191 203.702 266.303 203.644 266.396ZM206.29 266.708V263.799H208.045V264.112H206.642V265.095H207.954V265.407H206.642V266.396H208.068V266.708H206.29ZM210.39 266.708L209.39 265.373H209.032V266.708H208.68V263.799H209.032V265.061H209.186L210.351 263.799H210.771L209.595 265.078L210.811 266.708H210.39ZM211.385 266.708H211.016L212.084 263.799H212.448L213.516 266.708H213.147L212.277 264.259H212.255L211.385 266.708ZM211.522 265.572H213.01V265.884H211.522V265.572ZM213.969 266.708V263.799H215.725V264.112H214.321V265.021H215.06C215.268 265.021 215.444 265.055 215.587 265.123C215.731 265.191 215.84 265.287 215.914 265.411C215.989 265.536 216.026 265.682 216.026 265.85C216.026 266.019 215.989 266.168 215.914 266.296C215.84 266.425 215.731 266.526 215.587 266.599C215.444 266.672 215.268 266.708 215.06 266.708H213.969ZM214.321 266.402H215.06C215.193 266.402 215.305 266.375 215.397 266.322C215.49 266.268 215.56 266.199 215.607 266.115C215.655 266.029 215.679 265.939 215.679 265.845C215.679 265.706 215.626 265.586 215.519 265.485C215.412 265.384 215.259 265.333 215.06 265.333H214.321V266.402ZM216.606 266.708V263.799H217.589C217.817 263.799 218.004 263.84 218.149 263.923C218.294 264.004 218.402 264.115 218.472 264.254C218.542 264.393 218.578 264.548 218.578 264.72C218.578 264.891 218.542 265.047 218.472 265.187C218.403 265.327 218.296 265.439 218.151 265.522C218.006 265.605 217.821 265.646 217.595 265.646H216.89V265.333H217.583C217.739 265.333 217.865 265.306 217.96 265.252C218.054 265.198 218.123 265.125 218.166 265.034C218.209 264.941 218.231 264.836 218.231 264.72C218.231 264.603 218.209 264.499 218.166 264.407C218.123 264.315 218.054 264.243 217.958 264.191C217.863 264.138 217.736 264.112 217.578 264.112H216.958V266.708H216.606ZM219.406 265.021H220.236C220.444 265.021 220.62 265.055 220.763 265.123C220.907 265.191 221.016 265.287 221.09 265.411C221.164 265.536 221.202 265.682 221.202 265.85C221.202 266.019 221.164 266.168 221.09 266.296C221.016 266.425 220.907 266.526 220.763 266.599C220.62 266.672 220.444 266.708 220.236 266.708H219.145V263.799H219.497V266.402H220.236C220.368 266.402 220.481 266.375 220.573 266.322C220.665 266.268 220.735 266.199 220.783 266.115C220.831 266.029 220.855 265.939 220.855 265.845C220.855 265.706 220.802 265.586 220.695 265.485C220.588 265.384 220.435 265.333 220.236 265.333H219.406V265.021Z" fill="#D8D5D5"/>
<path d="M283.236 266.708H282.884V264.112H282.265C282.107 264.112 281.981 264.136 281.885 264.184C281.79 264.232 281.72 264.299 281.677 264.386C281.633 264.473 281.611 264.575 281.611 264.691C281.611 264.808 281.633 264.908 281.675 264.992C281.719 265.076 281.788 265.14 281.883 265.186C281.978 265.231 282.104 265.254 282.259 265.254H283.043V265.572H282.248C282.022 265.572 281.837 265.535 281.692 265.46C281.547 265.384 281.44 265.28 281.37 265.147C281.3 265.015 281.265 264.863 281.265 264.691C281.265 264.52 281.3 264.367 281.37 264.232C281.44 264.098 281.548 263.992 281.694 263.916C281.839 263.838 282.026 263.799 282.253 263.799H283.236V266.708ZM281.867 265.402H282.265L281.56 266.708H281.151L281.867 265.402ZM283.943 266.708V263.799H284.295V265.095H285.846V263.799H286.198V266.708H285.846V265.407H284.295V266.708H283.943ZM286.903 266.708V263.799H287.921C288.123 263.799 288.29 263.834 288.422 263.904C288.554 263.973 288.652 264.067 288.716 264.184C288.78 264.301 288.813 264.43 288.813 264.572C288.813 264.697 288.79 264.8 288.746 264.882C288.702 264.963 288.644 265.027 288.573 265.075C288.501 265.122 288.424 265.157 288.341 265.18V265.208C288.43 265.214 288.519 265.245 288.609 265.302C288.699 265.359 288.775 265.44 288.835 265.546C288.896 265.652 288.926 265.782 288.926 265.936C288.926 266.081 288.893 266.213 288.827 266.329C288.76 266.446 288.656 266.538 288.513 266.606C288.37 266.674 288.184 266.708 287.955 266.708H286.903ZM287.256 266.396H287.955C288.185 266.396 288.348 266.351 288.445 266.262C288.542 266.172 288.591 266.063 288.591 265.936C288.591 265.837 288.566 265.746 288.516 265.663C288.466 265.579 288.394 265.511 288.301 265.461C288.208 265.41 288.099 265.384 287.972 265.384H287.256V266.396ZM287.256 265.078H287.909C288.015 265.078 288.111 265.057 288.196 265.015C288.282 264.973 288.35 264.915 288.401 264.839C288.452 264.763 288.477 264.674 288.477 264.572C288.477 264.444 288.433 264.336 288.344 264.247C288.255 264.157 288.114 264.112 287.921 264.112H287.256V265.078ZM289.624 266.708H289.255L290.323 263.799H290.687L291.755 266.708H291.386L290.516 264.259H290.494L289.624 266.708ZM289.761 265.572H291.249V265.884H289.761V265.572ZM292.208 266.708V263.799H293.191C293.419 263.799 293.606 263.84 293.751 263.923C293.897 264.004 294.005 264.115 294.075 264.254C294.145 264.393 294.18 264.548 294.18 264.72C294.18 264.891 294.145 265.047 294.075 265.187C294.006 265.327 293.899 265.439 293.754 265.522C293.609 265.605 293.423 265.646 293.197 265.646H292.492V265.333H293.185C293.342 265.333 293.467 265.306 293.562 265.252C293.657 265.198 293.725 265.125 293.768 265.034C293.811 264.941 293.833 264.836 293.833 264.72C293.833 264.603 293.811 264.499 293.768 264.407C293.725 264.315 293.656 264.243 293.56 264.191C293.465 264.138 293.338 264.112 293.18 264.112H292.56V266.708H292.208ZM295.009 265.021H295.838C296.046 265.021 296.222 265.055 296.365 265.123C296.509 265.191 296.618 265.287 296.692 265.411C296.767 265.536 296.804 265.682 296.804 265.85C296.804 266.019 296.767 266.168 296.692 266.296C296.618 266.425 296.509 266.526 296.365 266.599C296.222 266.672 296.046 266.708 295.838 266.708H294.747V263.799H295.1V266.402H295.838C295.971 266.402 296.083 266.375 296.175 266.322C296.268 266.268 296.338 266.199 296.385 266.115C296.433 266.029 296.457 265.939 296.457 265.845C296.457 265.706 296.404 265.586 296.297 265.485C296.19 265.384 296.037 265.333 295.838 265.333H295.009V265.021Z" fill="#D8D5D5"/>
<path d="M360.232 264.146H360.693C360.908 264.146 361.1 264.194 361.268 264.291C361.435 264.387 361.567 264.522 361.663 264.694C361.758 264.866 361.806 265.066 361.806 265.294C361.806 265.521 361.758 265.721 361.663 265.894C361.567 266.068 361.435 266.203 361.268 266.301C361.1 266.398 360.908 266.447 360.693 266.447H360.232C360.016 266.447 359.825 266.399 359.657 266.302C359.489 266.206 359.358 266.071 359.262 265.899C359.166 265.726 359.119 265.527 359.119 265.299C359.119 265.072 359.166 264.872 359.262 264.698C359.358 264.525 359.489 264.39 359.657 264.292C359.825 264.195 360.016 264.146 360.232 264.146ZM360.232 264.458C360.068 264.458 359.928 264.493 359.815 264.562C359.702 264.631 359.616 264.729 359.558 264.855C359.5 264.981 359.471 265.129 359.471 265.299C359.471 265.468 359.5 265.615 359.558 265.74C359.616 265.865 359.702 265.962 359.815 266.031C359.928 266.1 360.068 266.134 360.232 266.134H360.693C360.857 266.134 360.996 266.1 361.109 266.031C361.222 265.962 361.308 265.864 361.366 265.738C361.425 265.612 361.454 265.464 361.454 265.294C361.454 265.125 361.425 264.978 361.366 264.853C361.308 264.728 361.222 264.631 361.109 264.562C360.996 264.493 360.857 264.458 360.693 264.458H360.232ZM360.641 263.748V266.828H360.289V263.748H360.641ZM362.396 266.708V263.799H364.152V264.112H362.749V265.095H364.061V265.407H362.749V266.396H364.175V266.708H362.396ZM364.787 266.708V263.799H365.804C366.007 263.799 366.174 263.834 366.305 263.904C366.437 263.973 366.535 264.067 366.599 264.184C366.664 264.301 366.696 264.43 366.696 264.572C366.696 264.697 366.674 264.8 366.629 264.882C366.586 264.963 366.528 265.027 366.456 265.075C366.385 265.122 366.308 265.157 366.224 265.18V265.208C366.313 265.214 366.403 265.245 366.493 265.302C366.583 265.359 366.658 265.44 366.719 265.546C366.779 265.652 366.81 265.782 366.81 265.936C366.81 266.081 366.777 266.213 366.71 266.329C366.644 266.446 366.539 266.538 366.396 266.606C366.253 266.674 366.067 266.708 365.838 266.708H364.787ZM365.139 266.396H365.838C366.068 266.396 366.232 266.351 366.328 266.262C366.426 266.172 366.474 266.063 366.474 265.936C366.474 265.837 366.449 265.746 366.399 265.663C366.349 265.579 366.277 265.511 366.185 265.461C366.092 265.41 365.982 265.384 365.855 265.384H365.139V266.396ZM365.139 265.078H365.793C365.899 265.078 365.994 265.057 366.08 265.015C366.166 264.973 366.234 264.915 366.284 264.839C366.335 264.763 366.361 264.674 366.361 264.572C366.361 264.444 366.316 264.336 366.227 264.247C366.138 264.157 365.997 264.112 365.804 264.112H365.139V265.078ZM367.389 266.708V263.799H368.371C368.6 263.799 368.786 263.84 368.931 263.923C369.077 264.004 369.185 264.115 369.255 264.254C369.325 264.393 369.36 264.548 369.36 264.72C369.36 264.891 369.325 265.047 369.255 265.187C369.186 265.327 369.079 265.439 368.934 265.522C368.789 265.605 368.603 265.646 368.377 265.646H367.673V265.333H368.366C368.522 265.333 368.648 265.306 368.742 265.252C368.837 265.198 368.906 265.125 368.948 265.034C368.992 264.941 369.014 264.836 369.014 264.72C369.014 264.603 368.992 264.499 368.948 264.407C368.906 264.315 368.836 264.243 368.741 264.191C368.645 264.138 368.518 264.112 368.36 264.112H367.741V266.708H367.389ZM369.75 266.708H369.381L370.449 263.799H370.813L371.881 266.708H371.511L370.642 264.259H370.619L369.75 266.708ZM369.886 265.572H371.375V265.884H369.886V265.572ZM372.084 266.708V266.384H372.169C372.29 266.384 372.385 266.346 372.452 266.268C372.519 266.19 372.567 266.065 372.597 265.892C372.627 265.718 372.647 265.489 372.658 265.203L372.709 263.799H374.482V266.708H374.129V264.112H373.044L372.999 265.271C372.987 265.576 372.959 265.835 372.915 266.049C372.87 266.263 372.792 266.427 372.68 266.539C372.569 266.652 372.406 266.708 372.192 266.708H372.084ZM375.185 266.708V263.799H376.941V264.112H375.538V265.021H376.276C376.485 265.021 376.66 265.055 376.803 265.123C376.947 265.191 377.056 265.287 377.13 265.411C377.205 265.536 377.242 265.682 377.242 265.85C377.242 266.019 377.205 266.168 377.13 266.296C377.056 266.425 376.947 266.526 376.803 266.599C376.66 266.672 376.485 266.708 376.276 266.708H375.185ZM375.538 266.402H376.276C376.409 266.402 376.521 266.375 376.613 266.322C376.706 266.268 376.776 266.199 376.823 266.115C376.871 266.029 376.896 265.939 376.896 265.845C376.896 265.706 376.842 265.586 376.735 265.485C376.628 265.384 376.475 265.333 376.276 265.333H375.538V266.402Z" fill="#D8D5D5"/>
<path d="M416.566 262.536H416.986L417.975 264.951H418.009L418.997 262.536H419.418V265.445H419.088V263.235H419.06L418.151 265.445H417.833L416.924 263.235H416.895V265.445H416.566V262.536ZM420.244 265.445H419.874L420.942 262.536H421.306L422.374 265.445H422.005L421.136 262.996H421.113L420.244 265.445ZM420.38 264.309H421.869V264.621H420.38V264.309ZM422.827 265.445V262.536H423.81C424.039 262.536 424.225 262.577 424.37 262.66C424.516 262.741 424.624 262.852 424.694 262.991C424.764 263.13 424.799 263.285 424.799 263.457C424.799 263.628 424.764 263.784 424.694 263.924C424.625 264.064 424.518 264.176 424.373 264.259C424.228 264.342 424.042 264.383 423.816 264.383H423.111V264.07H423.805C423.961 264.07 424.086 264.043 424.181 263.989C424.276 263.935 424.344 263.862 424.387 263.771C424.431 263.678 424.452 263.573 424.452 263.457C424.452 263.34 424.431 263.236 424.387 263.144C424.344 263.052 424.275 262.98 424.18 262.928C424.084 262.875 423.957 262.849 423.799 262.849H423.18V265.445H422.827ZM425.628 263.758H426.457C426.666 263.758 426.841 263.792 426.984 263.86C427.128 263.928 427.237 264.024 427.311 264.148C427.386 264.272 427.423 264.419 427.423 264.587C427.423 264.756 427.386 264.905 427.311 265.033C427.237 265.162 427.128 265.263 426.984 265.336C426.841 265.409 426.666 265.445 426.457 265.445H425.366V262.536H425.719V265.138H426.457C426.59 265.138 426.702 265.112 426.794 265.059C426.887 265.005 426.957 264.936 427.004 264.852C427.052 264.766 427.077 264.676 427.077 264.582C427.077 264.442 427.023 264.323 426.916 264.222C426.809 264.121 426.656 264.07 426.457 264.07H425.628V263.758ZM427.66 262.849V262.536H429.842V262.849H428.927V265.445H428.575V262.849H427.66Z" fill="#D8D5D5"/>
<path d="M47.56 255.13C47.56 255.13 78.9856 220.237 104.893 217.871C125.246 216.012 135.115 236.1 155.347 233.027C179.352 229.382 181.579 192.42 205.8 193.242C223.929 193.857 228.498 215.495 246.507 217.871C260.505 219.718 269.096 217.044 282.053 210.924C298.415 203.197 302.161 189.506 317.027 178.717C328.904 170.097 334.941 160.818 349.133 159.772C362.344 158.798 368.007 172.258 381.24 171.771C400.791 171.051 425.96 140.195 425.96 140.195V258.288L47.56 255.13Z" fill="#89CFF8" stroke="#2DACEB" stroke-width="3"/>
<path d="M93.9083 162.374C96.7061 161.313 99.1371 158.939 99.1371 154.897C99.1371 149.137 95.1008 145.247 88.1749 145.247C81.2032 145.247 77.1211 149.137 77.1211 154.897C77.1211 158.888 79.1392 161.262 81.7995 162.374C78.5429 163.536 75.6533 166.517 75.6533 170.962C75.6533 178.591 80.6987 181.572 87.7163 181.572C94.2752 181.572 99.9168 178.591 99.9168 170.962C99.9168 166.517 97.1189 163.536 93.9083 162.374ZM88.0832 150.451C90.9728 150.451 92.624 152.421 92.624 155.2C92.624 158.181 90.8811 160.05 88.0373 160.05C85.2395 160.05 83.68 158.181 83.68 155.2C83.68 152.421 85.3312 150.451 88.0832 150.451ZM87.808 176.368C84.2763 176.368 82.304 174.196 82.304 170.811C82.304 167.578 84.2763 165.203 87.7621 165.203C91.5232 165.203 93.2661 167.628 93.2661 170.861C93.2661 174.145 91.5691 176.368 87.808 176.368Z" fill="#2DACEB"/>
<path d="M118.034 157.423C116.199 157.423 114.548 157.827 113.081 158.787L111.521 161.161L112.714 151.411H127.253V145.955H107.531L105.283 166.567H111.154C112.255 163.789 113.86 162.627 116.337 162.627C119.777 162.627 121.795 165.405 121.795 169.497C121.795 173.59 119.731 176.318 116.199 176.318C113.172 176.318 111.567 174.347 111.108 171.266L111.062 170.76H104.733L104.779 171.266C105.421 178.288 109.457 181.521 116.521 181.521C122.713 181.521 127.253 177.48 127.253 169.497C127.253 162.323 124.685 157.423 118.034 157.423Z" fill="#2DACEB"/>
<path d="M139.463 168.764V167.843C139.463 167.127 139.616 166.465 139.923 165.857C140.235 165.25 140.687 164.761 141.278 164.392C141.869 164.022 142.59 163.838 143.443 163.838C144.312 163.838 145.042 164.022 145.633 164.392C146.23 164.755 146.678 165.241 146.98 165.849C147.286 166.451 147.44 167.116 147.44 167.843V168.764C147.44 169.48 147.286 170.142 146.98 170.75C146.673 171.357 146.221 171.846 145.624 172.215C145.028 172.585 144.301 172.769 143.443 172.769C142.579 172.769 141.852 172.585 141.261 172.215C140.67 171.846 140.221 171.357 139.914 170.75C139.613 170.142 139.463 169.48 139.463 168.764ZM142.181 167.843V168.764C142.181 169.127 142.269 169.477 142.445 169.812C142.627 170.147 142.96 170.315 143.443 170.315C143.937 170.315 144.269 170.153 144.44 169.829C144.61 169.5 144.695 169.144 144.695 168.764V167.843C144.695 167.463 144.613 167.105 144.448 166.769C144.289 166.428 143.954 166.258 143.443 166.258C142.965 166.258 142.636 166.428 142.454 166.769C142.272 167.105 142.181 167.463 142.181 167.843ZM130.411 158.775V157.855C130.411 157.127 130.568 156.463 130.88 155.86C131.198 155.252 131.653 154.767 132.244 154.403C132.835 154.034 133.551 153.849 134.391 153.849C135.261 153.849 135.991 154.034 136.582 154.403C137.178 154.767 137.63 155.252 137.937 155.86C138.244 156.463 138.397 157.127 138.397 157.855V158.775C138.397 159.502 138.241 160.167 137.928 160.769C137.622 161.372 137.17 161.852 136.573 162.21C135.977 162.568 135.249 162.747 134.391 162.747C133.534 162.747 132.806 162.565 132.21 162.201C131.619 161.838 131.17 161.355 130.863 160.752C130.562 160.15 130.411 159.491 130.411 158.775ZM133.156 157.855V158.775C133.156 159.156 133.244 159.511 133.42 159.84C133.602 160.164 133.926 160.326 134.391 160.326C134.891 160.326 135.224 160.164 135.389 159.84C135.559 159.511 135.644 159.156 135.644 158.775V157.855C135.644 157.474 135.565 157.116 135.406 156.781C135.247 156.44 134.909 156.269 134.391 156.269C133.914 156.269 133.588 156.443 133.411 156.789C133.241 157.136 133.156 157.491 133.156 157.855ZM131.698 172.036L143.698 154.582H146.025L134.025 172.036H131.698Z" fill="#2DACEB"/>
<path d="M191.927 276.286V273.014H193.265C193.617 273.014 193.897 273.093 194.104 273.252C194.312 273.411 194.416 273.622 194.416 273.883C194.416 274.082 194.357 274.236 194.239 274.345C194.121 274.453 193.97 274.527 193.785 274.565C193.906 274.582 194.023 274.625 194.136 274.693C194.251 274.761 194.347 274.855 194.422 274.974C194.497 275.092 194.535 275.237 194.535 275.409C194.535 275.576 194.492 275.726 194.407 275.858C194.322 275.99 194.2 276.095 194.041 276.171C193.881 276.248 193.691 276.286 193.47 276.286H191.927ZM192.404 275.826H193.47C193.643 275.826 193.778 275.785 193.876 275.703C193.974 275.62 194.023 275.508 194.023 275.366C194.023 275.197 193.974 275.064 193.876 274.968C193.778 274.87 193.643 274.821 193.47 274.821H192.404V275.826ZM192.404 274.386H193.265C193.4 274.386 193.516 274.367 193.612 274.331C193.709 274.292 193.783 274.238 193.834 274.169C193.886 274.098 193.913 274.014 193.913 273.917C193.913 273.779 193.855 273.671 193.74 273.593C193.625 273.514 193.467 273.474 193.265 273.474H192.404V274.386ZM195.296 277.514V273.014H195.782V273.534H195.841C195.878 273.477 195.93 273.404 195.995 273.316C196.062 273.227 196.157 273.147 196.28 273.078C196.405 273.007 196.574 272.971 196.788 272.971C197.063 272.971 197.306 273.04 197.516 273.178C197.726 273.316 197.891 273.511 198.008 273.764C198.126 274.017 198.185 274.315 198.185 274.659C198.185 275.005 198.126 275.306 198.008 275.56C197.891 275.813 197.727 276.009 197.518 276.148C197.31 276.286 197.069 276.355 196.796 276.355C196.586 276.355 196.417 276.32 196.291 276.25C196.165 276.179 196.067 276.099 195.999 276.009C195.931 275.919 195.878 275.843 195.841 275.784H195.799V277.514H195.296ZM195.79 274.65C195.79 274.897 195.827 275.115 195.899 275.304C195.971 275.492 196.077 275.639 196.216 275.745C196.356 275.85 196.526 275.903 196.728 275.903C196.938 275.903 197.114 275.848 197.254 275.737C197.396 275.625 197.503 275.474 197.574 275.285C197.646 275.095 197.682 274.883 197.682 274.65C197.682 274.42 197.647 274.213 197.576 274.028C197.506 273.842 197.4 273.695 197.258 273.587C197.118 273.478 196.941 273.423 196.728 273.423C196.523 273.423 196.351 273.475 196.212 273.578C196.073 273.681 195.968 273.824 195.897 274.009C195.826 274.192 195.79 274.406 195.79 274.65ZM200.324 276.355C200.009 276.355 199.737 276.285 199.508 276.146C199.281 276.005 199.106 275.809 198.982 275.558C198.86 275.305 198.799 275.011 198.799 274.676C198.799 274.34 198.86 274.045 198.982 273.789C199.106 273.532 199.278 273.332 199.498 273.188C199.719 273.044 199.978 272.971 200.273 272.971C200.444 272.971 200.612 273 200.778 273.056C200.944 273.113 201.096 273.206 201.232 273.333C201.368 273.46 201.477 273.627 201.558 273.836C201.639 274.045 201.68 274.302 201.68 274.607V274.821H199.157V274.386H201.168C201.168 274.201 201.131 274.036 201.057 273.892C200.985 273.747 200.881 273.632 200.746 273.549C200.613 273.465 200.455 273.423 200.273 273.423C200.073 273.423 199.9 273.473 199.753 273.572C199.609 273.67 199.497 273.798 199.419 273.956C199.341 274.113 199.302 274.282 199.302 274.463V274.752C199.302 275 199.344 275.209 199.43 275.381C199.516 275.551 199.636 275.681 199.79 275.771C199.943 275.859 200.121 275.903 200.324 275.903C200.457 275.903 200.576 275.884 200.682 275.848C200.79 275.809 200.883 275.752 200.962 275.677C201.04 275.6 201.1 275.505 201.143 275.392L201.628 275.528C201.577 275.693 201.491 275.838 201.371 275.963C201.25 276.086 201.101 276.183 200.923 276.252C200.746 276.321 200.546 276.355 200.324 276.355ZM204.234 275.605L205.376 273.014H205.854L204.439 276.286H204.03L202.641 273.014H203.109L204.234 275.605ZM202.947 273.014V276.286H202.444V273.014H202.947ZM205.521 276.286V273.014H206.024V276.286H205.521ZM208.913 276.286V273.474H208.044C207.848 273.474 207.694 273.519 207.582 273.61C207.469 273.701 207.413 273.826 207.413 273.985C207.413 274.142 207.464 274.264 207.565 274.354C207.667 274.443 207.807 274.488 207.984 274.488H209.041V274.957H207.984C207.763 274.957 207.572 274.918 207.411 274.84C207.251 274.762 207.127 274.65 207.04 274.505C206.954 274.359 206.91 274.186 206.91 273.985C206.91 273.784 206.956 273.61 207.047 273.465C207.138 273.321 207.268 273.209 207.437 273.131C207.607 273.053 207.81 273.014 208.044 273.014H209.391V276.286H208.913ZM206.731 276.286L207.66 274.659H208.206L207.277 276.286H206.731ZM212.18 274.446C212.18 273.909 212.25 273.415 212.389 272.965C212.53 272.513 212.73 272.098 212.99 271.718H213.433C213.331 271.859 213.235 272.032 213.145 272.238C213.057 272.443 212.98 272.668 212.913 272.914C212.846 273.158 212.794 273.411 212.755 273.672C212.718 273.933 212.7 274.191 212.7 274.446C212.7 274.784 212.733 275.127 212.798 275.475C212.863 275.823 212.951 276.146 213.062 276.444C213.173 276.742 213.297 276.985 213.433 277.173H212.99C212.73 276.794 212.53 276.379 212.389 275.929C212.25 275.477 212.18 274.982 212.18 274.446ZM215.965 275.605L217.107 273.014H217.584L216.169 276.286H215.76L214.371 273.014H214.84L215.965 275.605ZM214.678 273.014V276.286H214.175V273.014H214.678ZM217.252 276.286V273.014H217.754V276.286H217.252ZM220.047 276.355C219.732 276.355 219.46 276.285 219.231 276.146C219.004 276.005 218.828 275.809 218.705 275.558C218.583 275.305 218.522 275.011 218.522 274.676C218.522 274.34 218.583 274.045 218.705 273.789C218.828 273.532 219 273.332 219.22 273.188C219.442 273.044 219.701 272.971 219.996 272.971C220.166 272.971 220.335 273 220.501 273.056C220.667 273.113 220.818 273.206 220.955 273.333C221.091 273.46 221.2 273.627 221.281 273.836C221.362 274.045 221.402 274.302 221.402 274.607V274.821H218.879V274.386H220.891C220.891 274.201 220.854 274.036 220.78 273.892C220.708 273.747 220.604 273.632 220.469 273.549C220.335 273.465 220.178 273.423 219.996 273.423C219.796 273.423 219.622 273.473 219.476 273.572C219.331 273.67 219.22 273.798 219.142 273.956C219.063 274.113 219.024 274.282 219.024 274.463V274.752C219.024 275 219.067 275.209 219.152 275.381C219.239 275.551 219.359 275.681 219.512 275.771C219.666 275.859 219.844 275.903 220.047 275.903C220.179 275.903 220.299 275.884 220.405 275.848C220.513 275.809 220.606 275.752 220.684 275.677C220.762 275.6 220.823 275.505 220.865 275.392L221.351 275.528C221.3 275.693 221.214 275.838 221.093 275.963C220.973 276.086 220.823 276.183 220.646 276.252C220.468 276.321 220.269 276.355 220.047 276.355ZM223.497 276.355C223.19 276.355 222.926 276.282 222.704 276.137C222.482 275.992 222.312 275.793 222.193 275.539C222.073 275.284 222.014 274.994 222.014 274.667C222.014 274.335 222.075 274.041 222.197 273.787C222.321 273.531 222.492 273.332 222.713 273.188C222.934 273.044 223.193 272.971 223.488 272.971C223.718 272.971 223.926 273.014 224.11 273.099C224.295 273.184 224.446 273.304 224.564 273.457C224.682 273.61 224.755 273.789 224.784 273.994H224.281C224.242 273.845 224.157 273.713 224.025 273.598C223.894 273.481 223.718 273.423 223.497 273.423C223.301 273.423 223.129 273.474 222.981 273.576C222.835 273.677 222.72 273.82 222.638 274.005C222.557 274.188 222.517 274.403 222.517 274.65C222.517 274.903 222.556 275.123 222.636 275.311C222.717 275.498 222.83 275.644 222.977 275.747C223.125 275.851 223.298 275.903 223.497 275.903C223.627 275.903 223.746 275.88 223.853 275.835C223.959 275.789 224.049 275.724 224.123 275.639C224.197 275.554 224.25 275.451 224.281 275.332H224.784C224.755 275.525 224.685 275.699 224.573 275.854C224.462 276.007 224.315 276.13 224.132 276.22C223.95 276.31 223.738 276.355 223.497 276.355ZM227.487 276.286V273.474H226.618C226.422 273.474 226.268 273.519 226.156 273.61C226.044 273.701 225.987 273.826 225.987 273.985C225.987 274.142 226.038 274.264 226.139 274.354C226.241 274.443 226.381 274.488 226.558 274.488H227.615V274.957H226.558C226.337 274.957 226.146 274.918 225.985 274.84C225.825 274.762 225.701 274.65 225.615 274.505C225.528 274.359 225.485 274.186 225.485 273.985C225.485 273.784 225.53 273.61 225.621 273.465C225.712 273.321 225.842 273.209 226.011 273.131C226.181 273.053 226.384 273.014 226.618 273.014H227.965V276.286H227.487ZM225.306 276.286L226.235 274.659H226.78L225.851 276.286H225.306ZM231.462 273.014V275.818H231.922V277.343H231.419V276.286H228.888V273.014H229.391V275.818H230.959V273.014H231.462ZM233.131 274.198H234.069C234.452 274.198 234.745 274.296 234.949 274.49C235.152 274.685 235.253 274.931 235.253 275.23C235.253 275.426 235.208 275.604 235.117 275.764C235.026 275.924 234.892 276.051 234.716 276.146C234.54 276.24 234.324 276.286 234.069 276.286H232.696V273.014H233.199V275.818H234.069C234.267 275.818 234.431 275.765 234.559 275.66C234.686 275.555 234.75 275.42 234.75 275.255C234.75 275.082 234.686 274.941 234.559 274.831C234.431 274.722 234.267 274.667 234.069 274.667H233.131V274.198ZM235.773 276.286V273.014H236.276V276.286H235.773ZM238.475 274.446C238.475 274.982 238.405 275.477 238.264 275.929C238.125 276.379 237.926 276.794 237.666 277.173H237.223C237.325 277.032 237.42 276.859 237.508 276.653C237.598 276.448 237.676 276.224 237.742 275.98C237.809 275.734 237.861 275.48 237.898 275.219C237.936 274.956 237.955 274.698 237.955 274.446C237.955 274.107 237.923 273.764 237.857 273.416C237.792 273.068 237.704 272.745 237.593 272.447C237.482 272.149 237.359 271.906 237.223 271.718H237.666C237.926 272.098 238.125 272.513 238.264 272.965C238.405 273.415 238.475 273.909 238.475 274.446Z" fill="#D4CCCC"/>
<path d="M74.7307 71.9427V54.8067C74.7307 53.5694 74.976 52.5667 75.4667 51.7987C75.9573 51.0307 76.5973 50.4707 77.3867 50.1187C78.176 49.756 79.008 49.5747 79.8827 49.5747C80.48 49.5747 81.1093 49.6174 81.7707 49.7027C82.432 49.7774 83.0667 49.8574 83.6747 49.9427L82.6667 53.8307C82.4533 53.7774 82.2187 53.724 81.9627 53.6707C81.7173 53.6174 81.4667 53.5907 81.2107 53.5907C80.9547 53.5907 80.7307 53.6387 80.5387 53.7347C80.3467 53.8307 80.1973 53.98 80.0907 54.1827C79.984 54.3747 79.9307 54.6147 79.9307 54.9027V71.9427H74.7307ZM72.6347 59.4947V56.1827H82.4427V59.4947H72.6347ZM86.3787 71.9427V49.8627H91.4987V71.9427H86.3787ZM103.647 72.4547C102.186 72.4547 100.842 72.156 99.6149 71.5587C98.3989 70.9507 97.4229 70.0334 96.6869 68.8067C95.9616 67.5694 95.5989 66.0014 95.5989 64.1027C95.5989 62.14 95.9616 60.54 96.6869 59.3027C97.4229 58.0654 98.3989 57.1534 99.6149 56.5667C100.842 55.9694 102.186 55.6707 103.647 55.6707C105.076 55.6707 106.394 55.9694 107.599 56.5667C108.804 57.1534 109.77 58.0654 110.495 59.3027C111.231 60.54 111.599 62.14 111.599 64.1027C111.599 66.0014 111.231 67.5694 110.495 68.8067C109.77 70.0334 108.804 70.9507 107.599 71.5587C106.394 72.156 105.076 72.4547 103.647 72.4547ZM103.455 67.9907C103.946 67.9907 104.42 67.8627 104.879 67.6067C105.348 67.3507 105.738 66.94 106.047 66.3747C106.356 65.7987 106.511 65.0414 106.511 64.1027C106.511 62.6414 106.25 61.612 105.727 61.0147C105.204 60.4174 104.575 60.1187 103.839 60.1187C103.348 60.1187 102.858 60.2467 102.367 60.5027C101.887 60.7587 101.487 61.18 101.167 61.7667C100.858 62.3427 100.703 63.1214 100.703 64.1027C100.703 65.5214 100.975 66.524 101.519 67.1107C102.074 67.6974 102.719 67.9907 103.455 67.9907ZM122.428 72.4547C120.967 72.4547 119.623 72.156 118.396 71.5587C117.18 70.9507 116.204 70.0334 115.468 68.8067C114.743 67.5694 114.38 66.0014 114.38 64.1027C114.38 62.14 114.743 60.54 115.468 59.3027C116.204 58.0654 117.18 57.1534 118.396 56.5667C119.623 55.9694 120.967 55.6707 122.428 55.6707C123.857 55.6707 125.175 55.9694 126.38 56.5667C127.585 57.1534 128.551 58.0654 129.276 59.3027C130.012 60.54 130.38 62.14 130.38 64.1027C130.38 66.0014 130.012 67.5694 129.276 68.8067C128.551 70.0334 127.585 70.9507 126.38 71.5587C125.175 72.156 123.857 72.4547 122.428 72.4547ZM122.236 67.9907C122.727 67.9907 123.201 67.8627 123.66 67.6067C124.129 67.3507 124.519 66.94 124.828 66.3747C125.137 65.7987 125.292 65.0414 125.292 64.1027C125.292 62.6414 125.031 61.612 124.508 61.0147C123.985 60.4174 123.356 60.1187 122.62 60.1187C122.129 60.1187 121.639 60.2467 121.148 60.5027C120.668 60.7587 120.268 61.18 119.948 61.7667C119.639 62.3427 119.484 63.1214 119.484 64.1027C119.484 65.5214 119.756 66.524 120.3 67.1107C120.855 67.6974 121.5 67.9907 122.236 67.9907ZM140.489 72.4547C139.124 72.4547 137.881 72.1027 136.761 71.3987C135.652 70.684 134.772 69.692 134.121 68.4227C133.471 67.1427 133.145 65.66 133.145 63.9747C133.145 62.3107 133.455 60.86 134.073 59.6227C134.692 58.3747 135.529 57.404 136.585 56.7107C137.641 56.0174 138.825 55.6707 140.137 55.6707C141.321 55.6707 142.329 55.9534 143.161 56.5187C143.993 57.0734 144.623 57.916 145.049 59.0467C145.487 60.1667 145.705 61.5747 145.705 63.2707H144.281C144.281 62.6734 144.148 62.156 143.881 61.7187C143.625 61.2707 143.284 60.924 142.857 60.6787C142.431 60.4334 141.956 60.3107 141.433 60.3107C140.761 60.3107 140.185 60.4707 139.705 60.7907C139.236 61.1107 138.879 61.548 138.633 62.1027C138.388 62.6574 138.265 63.2814 138.265 63.9747C138.265 64.7 138.388 65.3507 138.633 65.9267C138.889 66.5027 139.252 66.956 139.721 67.2867C140.191 67.6174 140.74 67.7827 141.369 67.7827C141.871 67.7827 142.34 67.644 142.777 67.3667C143.225 67.0787 143.588 66.7 143.865 66.2307C144.143 65.7614 144.281 65.2494 144.281 64.6947H145.705C145.705 66.476 145.46 67.9427 144.969 69.0947C144.489 70.236 143.849 71.084 143.049 71.6387C142.26 72.1827 141.407 72.4547 140.489 72.4547ZM145.289 71.9427L144.281 67.8307V49.8627H149.465V71.9427H145.289ZM154.864 71.9427V49.8627H159.984V71.9427H154.864ZM171.731 72.4547C170.408 72.4547 169.166 72.1134 168.003 71.4307C166.84 70.748 165.896 69.772 165.171 68.5027C164.456 67.2334 164.099 65.7294 164.099 63.9907C164.099 62.252 164.456 60.764 165.171 59.5267C165.886 58.2787 166.824 57.324 167.987 56.6627C169.15 56.0014 170.398 55.6707 171.731 55.6707C173.054 55.6707 174.206 55.9374 175.187 56.4707C176.168 56.9934 176.958 57.7027 177.555 58.5987C178.163 59.4947 178.558 60.508 178.739 61.6387C178.931 62.7587 178.894 63.916 178.627 65.1107H168.147V62.5187H174.883L174.147 62.9987C174.179 62.6254 174.163 62.2467 174.099 61.8627C174.046 61.4787 173.934 61.1267 173.763 60.8067C173.592 60.476 173.347 60.2147 173.027 60.0227C172.718 59.82 172.318 59.7187 171.827 59.7187C171.283 59.7187 170.808 59.852 170.403 60.1187C170.008 60.3747 169.699 60.7534 169.475 61.2547C169.262 61.7454 169.155 62.348 169.155 63.0627V65.0787C169.155 65.7507 169.251 66.332 169.443 66.8227C169.635 67.3134 169.918 67.6974 170.291 67.9747C170.675 68.2414 171.155 68.3747 171.731 68.3747C172.2 68.3747 172.611 68.2787 172.963 68.0867C173.315 67.8947 173.56 67.5907 173.699 67.1747H178.787C178.627 68.156 178.232 69.0467 177.603 69.8467C176.984 70.6467 176.174 71.2814 175.171 71.7507C174.179 72.22 173.032 72.4547 171.731 72.4547ZM180.43 56.1827H186.366L188.942 67.5747H188.718L191.294 56.1827H197.214L191.758 71.9427H185.886L180.43 56.1827Z" fill="#918A8A"/>
<ellipse cx="403.6" cy="53.0469" rx="24.08" ry="26.5234" fill="#2DACEB"/>
<path d="M391.004 57.4674C390.431 53.0469 404.191 32.8385 404.191 32.8385C404.191 32.8385 415.657 50.5208 415.657 57.4674C415.657 64.4141 412.217 69.4661 403.044 69.4661C393.871 69.4661 391.577 61.888 391.004 57.4674Z" fill="#09B1FF" stroke="white" stroke-width="3"/>
<path d="M392.151 58.099C392.151 58.099 395.021 54.6547 397.311 54.9414C399.225 55.181 399.411 57.8594 401.324 58.099C403.615 58.3857 404.182 54.8107 406.484 54.9414C408.594 55.0612 408.978 58.4147 411.071 58.099C412.804 57.8376 414.511 54.9414 414.511 54.9414" stroke="white"/>
<path d="M391.578 61.905C391.578 61.905 394.447 58.4607 396.738 58.7474C398.651 58.9869 398.837 61.6654 400.751 61.905C403.041 62.1916 403.609 58.6167 405.911 58.7474C408.02 58.8672 408.405 62.2207 410.498 61.905C412.23 61.6435 413.938 58.7474 413.938 58.7474" stroke="white"/>
<path d="M392.724 65.029C392.724 65.029 395.373 62.3063 397.487 62.5329C399.254 62.7223 399.425 64.8396 401.192 65.029C403.306 65.2556 403.83 62.4296 405.955 62.5329C407.902 62.6276 408.257 65.2786 410.189 65.029C411.788 64.8223 413.364 62.5329 413.364 62.5329" stroke="white"/>
<defs>
<filter id="filter0_d_484_141" x="35.5467" y="57.888" width="455.173" height="330.492" filterUnits="userSpaceOnUse" color-interpolation-filters="sRGB">
<feFlood flood-opacity="0" result="BackgroundImageFix"/>
<feColorMatrix in="SourceAlpha" type="matrix" values="0 0 0 0 0 0 0 0 0 0 0 0 0 0 0 0 0 0 127 0" result="hardAlpha"/>
<feMorphology radius="2" operator="dilate" in="SourceAlpha" result="effect1_dropShadow_484_141"/>
<feOffset dy="4"/>
<feGaussianBlur stdDeviation="3"/>
<feComposite in2="hardAlpha" operator="out"/>
<feColorMatrix type="matrix" values="0 0 0 0 0 0 0 0 0 0 0 0 0 0 0 0 0 0 0.25 0"/>
<feBlend mode="normal" in2="BackgroundImageFix" result="effect1_dropShadow_484_141"/>
<feBlend mode="normal" in="SourceGraphic" in2="effect1_dropShadow_484_141" result="shape"/>
</filter>
<filter id="filter1_d_484_141" x="0" y="2.31509" width="455.173" height="330.492" filterUnits="userSpaceOnUse" color-interpolation-filters="sRGB">
<feFlood flood-opacity="0" result="BackgroundImageFix"/>
<feColorMatrix in="SourceAlpha" type="matrix" values="0 0 0 0 0 0 0 0 0 0 0 0 0 0 0 0 0 0 127 0" result="hardAlpha"/>
<feMorphology radius="2" operator="dilate" in="SourceAlpha" result="effect1_dropShadow_484_141"/>
<feOffset dy="4"/>
<feGaussianBlur stdDeviation="3"/>
<feComposite in2="hardAlpha" operator="out"/>
<feColorMatrix type="matrix" values="0 0 0 0 0 0 0 0 0 0 0 0 0 0 0 0 0 0 0.25 0"/>
<feBlend mode="normal" in2="BackgroundImageFix" result="effect1_dropShadow_484_141"/>
<feBlend mode="normal" in="SourceGraphic" in2="effect1_dropShadow_484_141" result="shape"/>
</filter>
</defs>
</svg>
