<svg width="569" height="474" viewBox="0 0 569 474" fill="none" xmlns="http://www.w3.org/2000/svg">
<path d="M202.596 52.7725C308.4 52.7727 395.19 144.093 395.19 258.038C395.19 371.983 308.4 463.303 202.596 463.304C96.7911 463.304 10 371.983 10 258.038C10 144.093 96.7911 52.7725 202.596 52.7725Z" stroke="#2B98F8" stroke-width="20"/>
<path d="M201.99 140.164C262.705 140.164 312.942 192.646 312.942 258.681C312.942 324.716 262.705 377.197 201.99 377.197C141.276 377.197 91.0381 324.716 91.0381 258.681C91.0382 192.646 141.276 140.164 201.99 140.164Z" stroke="#2B98F8" stroke-width="20"/>
<path d="M201.991 229.704C216.041 229.704 229 241.794 229 258.68C229 275.567 216.041 287.658 201.991 287.658C187.941 287.658 174.981 275.567 174.981 258.68C174.981 241.794 187.941 229.704 201.991 229.704Z" stroke="black" stroke-width="50"/>
<path d="M163.052 289.145C178.507 314.219 210.636 320.907 234.813 304.082C258.99 287.258 266.061 253.292 250.605 228.217C235.15 203.143 203.021 196.455 178.844 213.279C154.667 230.104 147.596 264.07 163.052 289.145ZM383.828 147.673C388.361 144.519 389.687 138.15 386.789 133.448C383.891 128.747 377.867 127.493 373.334 130.648L378.581 139.16L383.828 147.673ZM206.829 258.681L212.076 267.194L383.828 147.673L378.581 139.16L373.334 130.648L201.581 250.168L206.829 258.681Z" fill="black"/>
<path d="M378.581 139.16H446.057L537.029 94.2878L471.36 82.8916L482.205 20.9248L387.015 82.8916L378.581 139.16Z" fill="black" stroke="black" stroke-width="20"/>
</svg>
