<svg width="100" height="46" viewBox="0 0 100 46" fill="none" xmlns="http://www.w3.org/2000/svg">
<path d="M27.0391 39H20.6201V37.0928H22.7119V27.5361H20.6201V25.6187H24.8345V37.0928H27.0391V39ZM40.2666 34.2319C40.2666 34.9771 40.147 35.6538 39.9077 36.2622C39.6753 36.8706 39.3369 37.397 38.8926 37.8413C38.4551 38.2788 37.9287 38.6206 37.3135 38.8667C36.6982 39.1128 36.0112 39.2358 35.2524 39.2358C34.5073 39.2358 33.8271 39.1128 33.2119 38.8667C32.5967 38.6206 32.0669 38.2788 31.6226 37.8413C31.1851 37.397 30.8467 36.8706 30.6074 36.2622C30.375 35.6538 30.2588 34.9771 30.2588 34.2319C30.2588 33.5073 30.375 32.8374 30.6074 32.2222C30.8467 31.6001 31.1851 31.0669 31.6226 30.6226C32.0669 30.1714 32.5967 29.8262 33.2119 29.5869C33.8271 29.3408 34.5073 29.2178 35.2524 29.2178C36.0112 29.2178 36.6982 29.3408 37.3135 29.5869C37.9287 29.8262 38.4551 30.1714 38.8926 30.6226C39.3369 31.0669 39.6753 31.6001 39.9077 32.2222C40.147 32.8374 40.2666 33.5073 40.2666 34.2319ZM38.1543 34.2319C38.1543 33.8013 38.0859 33.3945 37.9492 33.0117C37.8193 32.6221 37.6279 32.2905 37.375 32.0171C37.1221 31.7437 36.8145 31.5283 36.4521 31.3711C36.0967 31.207 35.6968 31.125 35.2524 31.125C34.8013 31.125 34.3979 31.207 34.0425 31.3711C33.687 31.5283 33.3862 31.7437 33.1401 32.0171C32.894 32.2905 32.7026 32.6221 32.5659 33.0117C32.436 33.3945 32.3711 33.8013 32.3711 34.2319C32.3711 34.6831 32.436 35.0933 32.5659 35.4624C32.7026 35.8315 32.894 36.1562 33.1401 36.4365C33.3862 36.7168 33.687 36.9355 34.0425 37.0928C34.3979 37.2432 34.8013 37.3184 35.2524 37.3184C35.6968 37.3184 36.0967 37.2432 36.4521 37.0928C36.8145 36.9355 37.1221 36.7168 37.375 36.4365C37.6279 36.1562 37.8193 35.8315 37.9492 35.4624C38.0859 35.0933 38.1543 34.6831 38.1543 34.2319ZM51.7305 34.2319C51.7305 34.9771 51.6108 35.6538 51.3716 36.2622C51.1392 36.8706 50.8008 37.397 50.3564 37.8413C49.9189 38.2788 49.3926 38.6206 48.7773 38.8667C48.1621 39.1128 47.4751 39.2358 46.7163 39.2358C45.9712 39.2358 45.291 39.1128 44.6758 38.8667C44.0605 38.6206 43.5308 38.2788 43.0864 37.8413C42.6489 37.397 42.3105 36.8706 42.0713 36.2622C41.8389 35.6538 41.7227 34.9771 41.7227 34.2319C41.7227 33.5073 41.8389 32.8374 42.0713 32.2222C42.3105 31.6001 42.6489 31.0669 43.0864 30.6226C43.5308 30.1714 44.0605 29.8262 44.6758 29.5869C45.291 29.3408 45.9712 29.2178 46.7163 29.2178C47.4751 29.2178 48.1621 29.3408 48.7773 29.5869C49.3926 29.8262 49.9189 30.1714 50.3564 30.6226C50.8008 31.0669 51.1392 31.6001 51.3716 32.2222C51.6108 32.8374 51.7305 33.5073 51.7305 34.2319ZM49.6182 34.2319C49.6182 33.8013 49.5498 33.3945 49.4131 33.0117C49.2832 32.6221 49.0918 32.2905 48.8389 32.0171C48.5859 31.7437 48.2783 31.5283 47.916 31.3711C47.5605 31.207 47.1606 31.125 46.7163 31.125C46.2651 31.125 45.8618 31.207 45.5063 31.3711C45.1509 31.5283 44.8501 31.7437 44.604 32.0171C44.3579 32.2905 44.1665 32.6221 44.0298 33.0117C43.8999 33.3945 43.835 33.8013 43.835 34.2319C43.835 34.6831 43.8999 35.0933 44.0298 35.4624C44.1665 35.8315 44.3579 36.1562 44.604 36.4365C44.8501 36.7168 45.1509 36.9355 45.5063 37.0928C45.8618 37.2432 46.2651 37.3184 46.7163 37.3184C47.1606 37.3184 47.5605 37.2432 47.916 37.0928C48.2783 36.9355 48.5859 36.7168 48.8389 36.4365C49.0918 36.1562 49.2832 35.8315 49.4131 35.4624C49.5498 35.0933 49.6182 34.6831 49.6182 34.2319ZM62.4458 39H60.3232V38.1182C59.9131 38.4805 59.4995 38.7573 59.0825 38.9487C58.6655 39.1401 58.1904 39.2358 57.6572 39.2358C57.042 39.2358 56.4712 39.1128 55.9448 38.8667C55.4185 38.6206 54.9639 38.2788 54.5811 37.8413C54.2051 37.397 53.9077 36.8672 53.689 36.252C53.4771 35.6367 53.3711 34.9634 53.3711 34.2319C53.3711 33.5073 53.4771 32.8374 53.689 32.2222C53.9077 31.6001 54.2051 31.0703 54.5811 30.6328C54.9639 30.1885 55.4185 29.8433 55.9448 29.5972C56.4712 29.3442 57.042 29.2178 57.6572 29.2178C58.1904 29.2178 58.6655 29.3101 59.0825 29.4946C59.4995 29.6724 59.9131 29.9424 60.3232 30.3047V27.5361H58.4775V25.6187H62.4458V39ZM60.3232 31.9863C60.0703 31.7061 59.7422 31.4941 59.3389 31.3506C58.9424 31.2002 58.563 31.125 58.2007 31.125C57.4009 31.125 56.748 31.4121 56.2422 31.9863C55.7432 32.5605 55.4937 33.3091 55.4937 34.2319C55.4937 35.1548 55.7432 35.8999 56.2422 36.4673C56.748 37.0347 57.4009 37.3184 58.2007 37.3184C58.563 37.3184 58.9424 37.2466 59.3389 37.103C59.7422 36.9526 60.0703 36.7373 60.3232 36.457V31.9863ZM72.8945 39H66.4756V37.0928H68.5674V27.5361H66.4756V25.6187H70.6899V37.0928H72.8945V39ZM78.2676 35.0317C78.3701 35.688 78.6812 36.2349 79.2007 36.6724C79.7271 37.103 80.4312 37.3184 81.313 37.3184C82.0034 37.3184 82.6016 37.2124 83.1074 37.0005C83.6201 36.7817 84.061 36.4946 84.4302 36.1392L85.5171 37.6362C84.9019 38.2515 84.249 38.6719 83.5586 38.8975C82.875 39.123 82.1265 39.2358 81.313 39.2358C80.5747 39.2358 79.8877 39.1128 79.252 38.8667C78.6162 38.6206 78.0659 38.2788 77.6011 37.8413C77.1362 37.397 76.7705 36.8706 76.5039 36.2622C76.2441 35.6538 76.1143 34.9771 76.1143 34.2319C76.1143 33.5073 76.2339 32.8408 76.4731 32.2324C76.7192 31.6172 77.061 31.0874 77.4985 30.6431C77.9429 30.1919 78.4727 29.8433 79.0879 29.5972C79.7031 29.3442 80.3833 29.2178 81.1284 29.2178C81.9009 29.2178 82.6016 29.3511 83.2305 29.6177C83.8594 29.8774 84.396 30.2568 84.8403 30.7559C85.2915 31.2549 85.6436 31.8667 85.8965 32.5913C86.1494 33.3091 86.2759 34.1226 86.2759 35.0317H78.2676ZM83.8765 33.1655C83.7671 32.5503 83.4492 32.0581 82.9229 31.689C82.3965 31.313 81.7983 31.125 81.1284 31.125C80.4585 31.125 79.8569 31.313 79.3237 31.689C78.7905 32.0581 78.4692 32.5503 78.3599 33.1655H83.8765ZM97.3398 29.4434L93.8125 39H91.3105L87.7832 29.4434H90.0493L92.5718 36.6724L95.0737 29.4434H97.3398Z" fill="black"/>
<path d="M9.43359 21.5508V26.0039H16.3672C16.6797 26.0039 16.9141 26.056 17.0703 26.1602C17.4089 26.3945 17.7604 26.6745 18.125 27C18.4896 27.3255 18.8737 27.7161 19.2773 28.1719C19.4076 28.3411 19.4727 28.4779 19.4727 28.582C19.4727 28.6992 19.4076 28.8294 19.2773 28.9727C18.8737 29.4284 18.4896 29.819 18.125 30.1445C17.7604 30.4701 17.4089 30.75 17.0703 30.9844C16.888 31.0885 16.6536 31.1406 16.3672 31.1406H9.43359V40.9648C9.43359 41.3555 9.34896 41.6289 9.17969 41.7852C9.02344 41.9284 8.75 42 8.35938 42H4.19922C3.80859 42 3.52865 41.9284 3.35938 41.7852C3.20312 41.6289 3.125 41.3555 3.125 40.9648V19.2266C3.125 17.9245 3.24219 16.8958 3.47656 16.1406C3.72396 15.3724 4.19271 14.8255 4.88281 14.5C5.58594 14.1615 6.60807 13.9922 7.94922 13.9922H17.168C17.4805 13.9922 17.7148 14.0443 17.8711 14.1484C18.2096 14.3828 18.5612 14.6628 18.9258 14.9883C19.2904 15.3138 19.6745 15.7044 20.0781 16.1602C20.2083 16.3294 20.2734 16.4661 20.2734 16.5703C20.2734 16.6875 20.2083 16.8177 20.0781 16.9609C19.6745 17.4167 19.2904 17.8073 18.9258 18.1328C18.5612 18.4583 18.2096 18.7383 17.8711 18.9727C17.6888 19.0768 17.4544 19.1289 17.168 19.1289H11.6602C10.8008 19.1289 10.2148 19.3112 9.90234 19.6758C9.58984 20.0404 9.43359 20.6654 9.43359 21.5508Z" fill="black"/>
</svg>
    