<svg width="628" height="817" viewBox="0 0 628 817" fill="none" xmlns="http://www.w3.org/2000/svg">
<path d="M367.383 428.375L378.593 432.551L392.435 400.973C397.191 390.065 402.687 377.87 408.923 364.388C415.311 350.962 421.889 337.26 428.657 323.281C435.425 309.302 442.108 295.551 448.706 282.03C455.36 268.356 461.351 255.998 466.678 244.956C472.214 233.818 476.841 224.426 480.556 216.778C484.272 209.131 486.556 204.163 487.408 201.875C489.509 196.231 490.193 191.362 489.46 187.268C488.784 183.021 487.413 179.471 485.35 176.618C483.286 173.765 480.918 171.494 478.248 169.804C475.577 168.114 473.25 166.9 471.267 166.162C469.742 165.593 467.445 164.998 464.377 164.376C461.309 163.754 457.985 163.819 454.406 164.57C451.036 165.225 447.63 166.909 444.188 169.621C440.956 172.239 438.204 176.598 435.932 182.699C435.308 184.377 433.985 189.095 431.965 196.853C429.945 204.611 427.415 214.437 424.375 226.331C421.393 238.073 418.023 251.321 414.267 266.074C410.567 280.675 406.649 295.629 402.513 310.936C398.433 326.09 394.258 341.035 389.987 355.771C385.926 370.411 381.937 383.688 378.022 395.603L367.383 428.375ZM340.829 461.21C334.169 464.635 329.363 470.313 326.41 478.244C324.933 482.21 324.18 486.098 324.151 489.908C324.274 493.775 324.921 497.403 326.091 500.792C327.413 504.237 329.268 507.186 331.654 509.638C334.137 512.3 337.132 514.284 340.64 515.591C344.148 516.897 347.711 517.356 351.33 516.967C354.948 516.579 358.307 515.485 361.408 513.688C364.662 511.947 367.523 509.626 369.993 506.725C372.615 503.881 374.636 500.552 376.056 496.739C377.532 492.773 378.209 488.856 378.086 484.989C378.172 481.027 377.525 477.399 376.146 474.106C374.824 470.661 372.893 467.684 370.354 465.174C367.871 462.513 364.952 460.557 361.597 459.307C354.581 456.693 347.658 457.328 340.829 461.21ZM368.521 451.205C402.838 463.989 415.34 482.888 406.026 507.903C396.712 532.918 374.896 539.034 340.579 526.25C335.546 524.375 331.111 521.593 327.273 517.906C323.436 514.219 320.416 509.967 318.215 505.152C316.109 500.547 314.916 495.587 314.637 490.272C314.358 484.957 315.156 479.783 317.03 474.75C318.961 469.564 321.741 465.129 325.371 461.444C329.058 457.607 333.203 454.635 337.808 452.529C342.622 450.328 347.61 449.06 352.772 448.725C358.086 448.446 363.336 449.273 368.521 451.205ZM406.901 453.778L354.967 434.432L368.471 392.567C382.713 348.719 396.455 298.519 409.696 241.966C416.504 212.022 422.122 191.102 426.552 179.205C429.335 171.731 433.036 165.988 437.656 161.977C442.485 157.871 447.584 155.602 452.955 155.171C458.535 154.645 463.221 154.654 467.013 155.198C470.958 155.799 474.684 156.753 478.192 158.059C485.97 160.957 492.539 163.838 497.899 166.703C503.258 169.568 508.41 173.224 513.354 177.671C518.354 181.966 521.366 187.17 522.39 193.283C523.471 199.243 522.563 206.113 519.666 213.892C515.577 224.874 504.848 247.625 487.48 282.145C459.986 336.862 439.076 380.658 424.751 413.533L406.901 453.778Z" fill="#89CFF8"/>
<path d="M290.941 590.805C323.372 573.796 345.784 577.113 358.177 600.754C370.57 624.396 360.55 644.721 328.118 661.73C323.362 664.225 318.33 665.669 313.024 666.063C307.717 666.456 302.575 665.937 297.597 664.504C292.764 662.996 288.314 660.643 284.249 657.445C280.109 654.103 276.754 649.981 274.184 645.08C271.615 640.179 270.134 635.074 269.741 629.767C269.348 624.459 269.906 619.389 271.414 614.554C272.991 609.5 275.451 604.902 278.793 600.76C282.135 596.618 286.184 593.3 290.941 590.805ZM279.89 618.103C277.991 625.348 279.006 632.719 282.936 640.215C284.9 643.963 287.29 647.12 290.106 649.687C293.066 652.178 296.197 654.12 299.499 655.512C302.946 656.829 306.379 657.418 309.798 657.279C313.436 657.208 316.913 656.304 320.228 654.565C323.543 652.827 326.264 650.48 328.392 647.527C330.519 644.574 331.949 641.342 332.682 637.833C333.56 634.249 333.744 630.568 333.235 626.792C332.87 622.94 331.742 619.213 329.853 615.609C327.964 612.005 325.54 608.957 322.58 606.466C319.765 603.9 316.633 601.958 313.187 600.641C309.884 599.249 306.414 598.588 302.775 598.658C299.137 598.728 295.66 599.633 292.345 601.372C285.714 604.849 281.563 610.426 279.89 618.103ZM169.525 295.548C199.217 279.976 227.674 273.965 254.896 277.516C282.261 280.992 302.593 295.415 315.893 320.787C323.978 336.211 327.625 351.758 326.834 367.427C326.043 383.096 322.756 397.685 316.974 411.194C311.115 424.558 305.106 437.634 298.946 450.422C292.929 463.134 289.034 476.387 287.261 490.182C285.412 503.833 287.737 516.857 294.236 529.255L311.464 562.122L261.303 588.429L240.674 549.075C232.891 534.227 228.465 519.823 227.396 505.865C226.327 491.906 227.253 479.475 230.174 468.57C233.095 457.665 236.054 446.832 239.05 436.071C242.046 425.311 243.199 413.311 242.508 400.074C241.817 386.836 237.844 373.297 230.59 359.458C225.15 349.079 217.867 341.32 208.741 336.182C199.616 331.043 189.126 330.663 177.271 335.043C163.29 342.375 155.635 351.26 154.307 361.697C164.886 362.949 172.934 368.837 178.45 379.36C183.286 388.586 184.268 397.996 181.395 407.589C178.521 417.182 172.184 424.549 162.382 429.69C151.428 435.435 141.192 436.943 131.677 434.215C122.161 431.487 114.38 424.356 108.335 412.824C99.4939 395.957 99.8785 376.182 109.489 353.499C119.099 330.815 139.111 311.499 169.525 295.548ZM158.605 312.578C139.146 322.783 125.479 337.026 117.604 355.308C109.798 373.37 110.013 390.257 118.249 405.97C122.707 414.475 128.706 419.784 136.244 421.895C143.783 424.006 151.372 423.059 159.011 419.052C159.133 414.026 157.358 410.638 153.684 408.889C145.2 410.582 138.879 407.464 134.723 399.536C128.073 386.85 127.321 374.196 132.465 361.573C137.678 348.731 149.005 337.737 166.446 328.59C182.734 320.048 197.199 318.894 209.839 325.13C222.48 331.366 232.352 341.259 239.455 354.809C246.86 368.937 250.984 382.763 251.826 396.289C252.668 409.815 251.629 422.031 248.708 432.936C245.787 443.841 242.942 454.89 240.172 466.083C237.327 477.132 236.326 489.42 237.168 502.946C237.934 516.328 242.058 530.154 249.539 544.426L265.521 574.915L276.115 569.358L263.534 545.356C257.186 533.247 254.861 520.223 256.559 506.284C258.326 492.125 262.141 478.545 268.007 465.545C273.94 452.325 279.726 438.998 285.365 425.565C291.148 412.057 294.472 397.54 295.339 382.015C296.35 366.415 293.039 351.335 285.407 336.775C272.259 311.692 254.559 297.909 232.309 295.427C209.983 292.8 185.415 298.517 158.605 312.578Z" fill="#89CFF8"/>
</svg>
